<svg width="225" height="39" viewBox="0 0 225 39" fill="none" xmlns="http://www.w3.org/2000/svg">
<path d="M30.3155 29.0083H0.551208V31.2131C0.553092 31.8211 1.04561 32.3136 1.65359 32.3155H31.4179C32.0259 32.3136 32.5184 31.8211 32.5203 31.2131V29.0083H30.3155Z" fill="#F4F4F4"/>
<path d="M28.1107 8.06311H4.96071C3.74314 8.06311 2.75595 9.0503 2.75595 10.2679V29.0083H30.3155V10.2679C30.3155 9.0503 29.3283 8.06311 28.1107 8.06311Z" fill="#F6F5F5"/>
<path d="M32.5202 8.61429C32.5202 11.9629 29.8057 14.6774 26.4571 14.6774C23.1085 14.6774 20.394 11.9629 20.394 8.61429C20.394 8.42697 20.4051 8.24504 20.4215 8.0631C20.7291 4.84639 23.5053 2.43601 26.733 2.58323C29.961 2.73017 32.5065 5.38305 32.5202 8.61429Z" fill="#F4F4F4"/>
<path d="M27.4107 8.06311C27.1332 7.58459 26.5438 7.38597 26.0333 7.59858C25.5227 7.8112 25.2487 8.36966 25.393 8.90362C25.537 9.43759 26.0548 9.78208 26.603 9.70888C27.1512 9.63567 27.5606 9.16738 27.5595 8.6143C27.5593 8.4208 27.5079 8.23052 27.4107 8.06311V8.06311Z" fill="#FF3A10"/>
<path d="M2.75597 14.1262H0.551208V20.1893C0.551208 20.4937 0.798006 20.7405 1.1024 20.7405H11.0238C11.3282 20.7405 11.575 20.4937 11.575 20.1893V14.1262H2.75597Z" fill="#F4F4F4"/>
<path d="M11.0238 11.9214H1.1024C0.798006 11.9214 0.551208 12.1682 0.551208 12.4726V14.1262H11.575V12.4726C11.575 12.1682 11.3282 11.9214 11.0238 11.9214Z" fill="#FF3A10"/>
<path d="M23.15 20.7405C23.15 22.8715 21.4227 24.5988 19.2917 24.5988C17.1607 24.5988 15.4333 22.8715 15.4333 20.7405C15.4333 18.6095 17.1607 16.8821 19.2917 16.8821C21.4227 16.8821 23.15 18.6095 23.15 20.7405Z" fill="#F4F4F4"/>
<path d="M19.2917 29.0083V30.1107C19.2917 30.4151 19.0449 30.6619 18.7405 30.6619H14.3309C14.0266 30.6619 13.7798 30.4151 13.7798 30.1107V29.0083H19.2917Z" fill="#F4F4F4"/>
<path d="M26.4572 15.2286C30.1102 15.2286 33.0715 12.2673 33.0715 8.61429C33.0715 4.9613 30.1102 2 26.4572 2C22.8042 2 19.8429 4.9613 19.8429 8.61429C19.8469 12.2657 22.8058 15.2245 26.4572 15.2286ZM26.4572 3.10238C29.5014 3.10238 31.9691 5.57009 31.9691 8.61429C31.9691 11.6585 29.5014 14.1262 26.4572 14.1262C23.413 14.1262 20.9453 11.6585 20.9453 8.61429C20.9485 5.57143 23.4143 3.10561 26.4572 3.10238Z" fill="black"/>
<path d="M26.4571 10.2679C27.2616 10.2695 27.9498 9.69057 28.0862 8.8977C28.2224 8.10482 27.767 7.32944 27.0083 7.06219V4.75597H25.9059V7.06219C25.439 7.22879 25.0716 7.59616 24.905 8.06311H23.15V9.16549H24.905C25.1378 9.8238 25.759 10.2649 26.4571 10.2679ZM26.4571 8.06311C26.7615 8.06311 27.0083 8.30991 27.0083 8.6143C27.0083 8.91869 26.7615 9.16549 26.4571 9.16549C26.1527 9.16549 25.9059 8.91869 25.9059 8.6143C25.9059 8.30991 26.1527 8.06311 26.4571 8.06311Z" fill="black"/>
<path d="M1.10238 21.2917H11.0238C11.6326 21.2917 12.1262 20.7981 12.1262 20.1893V12.4726C12.1262 11.8638 11.6326 11.3702 11.0238 11.3702H8.81905V10.819H7.71667V11.3702H4.40952V10.819H3.30714V11.3702H1.10238C0.493595 11.3702 0 11.8638 0 12.4726V20.1893C0 20.7981 0.493595 21.2917 1.10238 21.2917ZM1.10238 20.1893V14.6774H11.0238V20.1893H1.10238ZM3.30714 12.4726V13.0238H4.40952V12.4726H7.71667V13.0238H8.81905V12.4726H11.0238V13.575H1.10238V12.4726H3.30714Z" fill="black"/>
<path d="M2.20474 15.7798H3.30712V16.8821H2.20474V15.7798Z" fill="black"/>
<path d="M4.40955 15.7798H5.51193V16.8821H4.40955V15.7798Z" fill="black"/>
<path d="M6.61429 15.7798H7.71667V16.8821H6.61429V15.7798Z" fill="black"/>
<path d="M8.81903 15.7798H9.92141V16.8821H8.81903V15.7798Z" fill="black"/>
<path d="M2.20474 17.9845H3.30712V19.0869H2.20474V17.9845Z" fill="black"/>
<path d="M4.40955 17.9845H5.51193V19.0869H4.40955V17.9845Z" fill="black"/>
<path d="M6.61429 17.9845H7.71667V19.0869H6.61429V17.9845Z" fill="black"/>
<path d="M8.81903 17.9845H9.92141V19.0869H8.81903V17.9845Z" fill="black"/>
<path d="M32.5202 28.4571H30.8667V15.2286H29.7643V28.4571H3.30714V22.3941H2.20476V28.4571H0.55119C0.246798 28.4571 0 28.7039 0 29.0083V31.2131C0 32.1263 0.740393 32.8667 1.65357 32.8667H31.4179C32.331 32.8667 33.0714 32.1263 33.0714 31.2131V29.0083C33.0714 28.7039 32.8246 28.4571 32.5202 28.4571ZM14.3309 29.5595H18.7405V30.1107H14.3309V29.5595ZM31.969 31.2131C31.969 31.5175 31.7222 31.7643 31.4179 31.7643H1.65357C1.34918 31.7643 1.10238 31.5175 1.10238 31.2131V29.5595H13.2286V30.1107C13.2286 30.7195 13.7222 31.2131 14.3309 31.2131H18.7405C19.3493 31.2131 19.8429 30.7195 19.8429 30.1107V29.5595H31.969V31.2131Z" fill="black"/>
<path d="M4.96069 8.6143H18.7405V7.51192H4.96069C3.43927 7.5138 2.20663 8.74644 2.20474 10.2679H3.30712C3.30712 9.35469 4.04752 8.6143 4.96069 8.6143Z" fill="black"/>
<path d="M5.51193 26.2524H27.5595V27.3548H5.51193V26.2524Z" fill="black"/>
<path d="M14.8821 20.7405C14.8821 23.1759 16.8563 25.15 19.2917 25.15C21.7271 25.15 23.7012 23.1759 23.7012 20.7405C23.7012 18.3051 21.7271 16.331 19.2917 16.331C16.8576 16.3336 14.8848 18.3064 14.8821 20.7405ZM19.2917 17.4333C21.118 17.4333 22.5988 18.9141 22.5988 20.7405C22.5988 22.5668 21.118 24.0476 19.2917 24.0476C17.4653 24.0476 15.9845 22.5668 15.9845 20.7405C15.9864 18.9147 17.4658 17.4352 19.2917 17.4333Z" fill="black"/>
<path d="M18.7404 22.394C18.8866 22.394 19.0268 22.3359 19.1302 22.2326L21.3349 20.0278L20.5555 19.2484L18.7404 21.0634L18.0278 20.3508L17.2484 21.1302L18.3507 22.2326C18.4541 22.3359 18.5943 22.394 18.7404 22.394Z" fill="black"/>
<path d="M6.06308 22.394V24.5988C6.06308 24.9032 6.30988 25.15 6.61427 25.15H11.0238V24.0476H7.16546V22.394H6.06308Z" fill="black"/>
<path d="M12.1262 24.0476H13.2286V25.15H12.1262V24.0476Z" fill="black"/>
<path d="M14.331 24.0476H15.4333V25.15H14.331V24.0476Z" fill="black"/>
<path d="M27.0083 20.7405V16.331H25.906V20.1893H24.8036V21.2917H26.4572C26.7616 21.2917 27.0083 21.0449 27.0083 20.7405Z" fill="black"/>
<path d="M14.331 13.0238H15.4333V14.1262H14.331V13.0238Z" fill="black"/>
<path d="M16.5357 13.0238H17.6381V14.1262H16.5357V13.0238Z" fill="black"/>
<path d="M18.7405 13.0238H19.8429V14.1262H18.7405V13.0238Z" fill="black"/>
<path d="M43.112 31.448C41.2987 31.448 39.5387 31.224 37.832 30.776C36.1253 30.328 34.7387 29.7307 33.672 28.984L35.752 24.312C36.7547 24.9734 37.9173 25.5067 39.24 25.912C40.5627 26.3174 41.864 26.52 43.144 26.52C45.576 26.52 46.792 25.912 46.792 24.696C46.792 24.056 46.44 23.5867 45.736 23.288C45.0533 22.968 43.944 22.6374 42.408 22.296C40.7227 21.9334 39.3147 21.5494 38.184 21.144C37.0533 20.7174 36.0827 20.0454 35.272 19.128C34.4613 18.2107 34.056 16.9734 34.056 15.416C34.056 14.0507 34.4293 12.824 35.176 11.736C35.9227 10.6267 37.032 9.75203 38.504 9.11203C39.9973 8.47203 41.8213 8.15203 43.976 8.15203C45.448 8.15203 46.8987 8.3227 48.328 8.66403C49.7573 8.98403 51.016 9.46403 52.104 10.104L50.152 14.808C48.0187 13.656 45.9493 13.08 43.944 13.08C42.6853 13.08 41.768 13.272 41.192 13.656C40.616 14.0187 40.328 14.4987 40.328 15.096C40.328 15.6934 40.6693 16.1414 41.352 16.44C42.0347 16.7387 43.1333 17.048 44.648 17.368C46.3547 17.7307 47.7627 18.1254 48.872 18.552C50.0027 18.9574 50.9733 19.6187 51.784 20.536C52.616 21.432 53.032 22.6587 53.032 24.216C53.032 25.56 52.6587 26.776 51.912 27.864C51.1653 28.952 50.0453 29.8267 48.552 30.488C47.0587 31.128 45.2453 31.448 43.112 31.448ZM67.1268 31.448C64.7801 31.448 62.6681 30.9574 60.7908 29.976C58.9348 28.9734 57.4734 27.5867 56.4068 25.816C55.3401 24.0454 54.8068 22.04 54.8068 19.8C54.8068 17.56 55.3401 15.5547 56.4068 13.784C57.4734 12.0134 58.9348 10.6374 60.7908 9.65603C62.6681 8.65336 64.7801 8.15203 67.1268 8.15203C69.1748 8.15203 71.0201 8.5147 72.6628 9.24003C74.3054 9.96536 75.6708 11.0107 76.7588 12.376L72.7268 16.024C71.2761 14.2747 69.5161 13.4 67.4468 13.4C66.2308 13.4 65.1428 13.6667 64.1828 14.2C63.2441 14.7334 62.5081 15.4907 61.9748 16.472C61.4628 17.432 61.2068 18.5414 61.2068 19.8C61.2068 21.0587 61.4628 22.1787 61.9748 23.16C62.5081 24.12 63.2441 24.8667 64.1828 25.4C65.1428 25.9334 66.2308 26.2 67.4468 26.2C69.5161 26.2 71.2761 25.3254 72.7268 23.576L76.7588 27.224C75.6708 28.5894 74.3054 29.6347 72.6628 30.36C71.0201 31.0854 69.1748 31.448 67.1268 31.448ZM100.896 8.60003V31H94.5598V22.264H85.9198V31H79.5838V8.60003H85.9198V17.016H94.5598V8.60003H100.896ZM123.349 26.104V31H105.365V8.60003H122.933V13.496H111.637V17.272H121.589V22.008H111.637V26.104H123.349Z" fill="black"/>
<path d="M127.24 8.60003H137.832C140.285 8.60003 142.461 9.0587 144.36 9.97603C146.259 10.8934 147.731 12.1947 148.776 13.88C149.821 15.5654 150.344 17.5387 150.344 19.8C150.344 22.0614 149.821 24.0347 148.776 25.72C147.731 27.4054 146.259 28.7067 144.36 29.624C142.461 30.5414 140.285 31 137.832 31H127.24V8.60003ZM137.576 25.944C139.496 25.944 141.032 25.4 142.184 24.312C143.357 23.224 143.944 21.72 143.944 19.8C143.944 17.88 143.357 16.376 142.184 15.288C141.032 14.2 139.496 13.656 137.576 13.656H133.576V25.944H137.576ZM164.014 31.448C160.686 31.448 158.094 30.5414 156.238 28.728C154.403 26.9147 153.486 24.344 153.486 21.016V8.60003H159.822V20.824C159.822 24.408 161.24 26.2 164.078 26.2C166.894 26.2 168.302 24.408 168.302 20.824V8.60003H174.542V21.016C174.542 24.344 173.614 26.9147 171.758 28.728C169.923 30.5414 167.342 31.448 164.014 31.448ZM178.834 8.60003H189.426C191.879 8.60003 194.055 9.0587 195.954 9.97603C197.852 10.8934 199.324 12.1947 200.37 13.88C201.415 15.5654 201.938 17.5387 201.938 19.8C201.938 22.0614 201.415 24.0347 200.37 25.72C199.324 27.4054 197.852 28.7067 195.954 29.624C194.055 30.5414 191.879 31 189.426 31H178.834V8.60003ZM189.17 25.944C191.09 25.944 192.626 25.4 193.778 24.312C194.951 23.224 195.538 21.72 195.538 19.8C195.538 17.88 194.951 16.376 193.778 15.288C192.626 14.2 191.09 13.656 189.17 13.656H185.17V25.944H189.17ZM223.255 26.104V31H205.271V8.60003H222.839V13.496H211.543V17.272H221.495V22.008H211.543V26.104H223.255Z" fill="#BF2C0C"/>
</svg>
