<?xml version="1.0" encoding="iso-8859-1"?>
<!-- Generator: Adobe Illustrator 19.0.0, SVG Export Plug-In . SVG Version: 6.00 Build 0)  -->
<svg version="1.1" id="Capa_1" xmlns="http://www.w3.org/2000/svg" xmlns:xlink="http://www.w3.org/1999/xlink" x="0px" y="0px"
	 viewBox="0 0 512 512" style="enable-background:new 0 0 512 512;" xml:space="preserve"
	 width="65" height="65">
<g>
	<g>
		<path d="M312.333,54h-144.79c-5.522,0-10,4.478-10,10v29c0,5.522,4.478,10,10,10c5.522,0,10-4.478,10-10V74h134.79
			c5.522,0,10-4.478,10-10C322.333,58.478,317.855,54,312.333,54z"/>
	</g>
</g>
<g>
	<g>
		<path d="M314.667,286H109.335c-20.586,0-37.334,16.748-37.334,37.334v89.332c0,20.586,16.748,37.334,37.334,37.334h205.332
			c20.586,0,37.334-16.748,37.334-37.334v-89.332C352.001,302.748,335.253,286,314.667,286z M314.667,430H109.335
			c-9.558,0-17.334-7.776-17.334-17.334v-89.332c0-9.558,7.776-17.334,17.334-17.334h205.332c9.558,0,17.334,7.776,17.334,17.334
			v89.332h0C332.001,422.224,324.225,430,314.667,430z"/>
	</g>
</g>
<g>
	<g>
		<path d="M383.543,166H289c-5.522,0-10,4.478-10,10c0,5.522,4.478,10,10,10h94.543c5.522,0,10-4.478,10-10
			C393.543,170.478,389.065,166,383.543,166z"/>
	</g>
</g>
<g>
	<g>
		<path d="M250.069,168.93C248.21,167.07,245.63,166,243,166s-5.21,1.069-7.07,2.93c-1.86,1.861-2.93,4.429-2.93,7.07
			c0,2.63,1.069,5.21,2.93,7.069c1.86,1.861,4.44,2.931,7.07,2.931s5.21-1.07,7.069-2.931C251.93,181.21,253,178.63,253,176
			S251.93,170.79,250.069,168.93z"/>
	</g>
</g>
<g>
	<g>
		<path d="M273,358h-87.998c-5.522,0-10,4.478-10,10c0,5.522,4.478,10,10,10H273c5.522,0,10-4.478,10-10
			C283,362.478,278.522,358,273,358z"/>
	</g>
</g>
<g>
	<g>
		<path d="M150.599,360.93c-1.859-1.861-4.439-2.93-7.069-2.93c-2.641,0-5.211,1.069-7.07,2.93c-1.87,1.86-2.93,4.44-2.93,7.07
			s1.06,5.21,2.93,7.069c1.859,1.86,4.439,2.931,7.07,2.931c2.63,0,5.199-1.07,7.069-2.931c1.86-1.859,2.931-4.439,2.931-7.069
			S152.46,362.79,150.599,360.93z"/>
	</g>
</g>
<g>
	<g>
		<path d="M462,158.963h-4V98c-0.008,0-0.016-0.001-0.024-0.001c-0.001-2.601-0.993-5.158-2.905-7.07l-88-88
			c-1.914-1.914-4.476-2.906-7.081-2.904C359.994,0.016,359.997,0.009,360,0H124c-16.542,0-30,13.458-30,30v88H10
			c-5.522,0-10,4.478-10,10v334c0,27.57,22.43,50,50,50h406c0.208,0,0.414-0.007,0.619-0.019c0.478,0.013,0.954,0.019,1.435,0.019
			C487.8,512,512,487.8,512,458.054V208.963C512,181.393,489.57,158.963,462,158.963z M370,34.143L423.857,88H387.5
			c-9.649,0-17.5-7.851-17.5-17.5V34.143z M50,492.001L50,492.001C33.458,492,20,478.542,20,462V138h123.667
			c12.064,0,22.905,7.177,27.616,18.282l34.63,81.623c1.568,3.695,5.192,6.095,9.206,6.095h158.773
			c16.644,0,30.197,13.444,30.214,29.959v184.146c0.013,12.831,4.531,24.63,12.055,33.896H50z M373.893,224H221.739l-32.044-75.528
			C181.842,129.961,163.775,118,143.667,118H114V30c0-5.514,4.486-10,10-10h226v50.5c0,15.746,9.759,29.247,23.543,34.796V118
			H212.001c-5.522,0-10,4.478-10,10c0,5.522,4.478,10,10,10h171.542c5.522,0,10-4.478,10-10v-20H438v310c0,5.514-4.486,10-10,10
			h-3.894V273.949C424.078,246.407,401.553,224,373.893,224z M492,458.054C492,476.771,476.771,492,458.054,492
			c-18.7,0-33.929-15.214-33.947-33.905V448H428c16.542,0,30-13.458,30-30V178.963h4c16.542,0,30,13.458,30,30V458.054z"/>
	</g>
</g>
<g>
</g>
<g>
</g>
<g>
</g>
<g>
</g>
<g>
</g>
<g>
</g>
<g>
</g>
<g>
</g>
<g>
</g>
<g>
</g>
<g>
</g>
<g>
</g>
<g>
</g>
<g>
</g>
<g>
</g>
</svg>
