<svg height="70" width="70" viewBox="0 0 507.328 507" xmlns="http://www.w3.org/2000/svg"><path d="m108.042969 234.4375 56.570312-56.570312 11.3125 11.3125-56.566406 56.570312zm0 0"/><path d="m141.992188 245.75 33.941406-33.941406 11.3125 11.3125-33.941406 33.941406zm0 0"/><path d="m221.175781 347.578125 45.304688 45.25 90.464843-90.503906-45.257812-45.265625zm45.304688 22.625-22.671875-22.625 67.878906-67.894531 22.632812 22.640625zm0 0"/><path d="m168.023438 496.164062 47.996093-48 11.3125 11.3125-47.996093 48zm0 0"/><path d="m224.023438 496.164062 24.003906-24.003906 11.3125 11.316406-24.003906 24zm0 0"/><path d="m460.078125 165.171875 11.28125-33.910156 35.96875-35.839844-11.296875-11.328125-38.625 38.527344-11.277344 33.925781-26.9375 26.992187-90.527344-90.519531-33.945312 33.945313c-10.332031 10.289062-26.304688 12.316406-38.878906 4.933594l70.472656-70.476563h45.253906l49.929688-49.945313-11.320313-11.3125-45.230469 45.257813h-45.257812l-19.3125 19.308594-56.566406-56.566407-214.929688 214.960938 56.578125 56.582031-58.554687 58.457031c-7.46875 7.527344-11.671875 17.691407-11.703125 28.296876v28.6875l-15.199219 15.199218 11.3125 11.3125 19.886719-19.886718v-35.3125c.015625-6.363282 2.535156-12.464844 7.015625-16.984376l69.144531-69.074218c2.898437 4.941406 4.417969 10.570312 4.402344 16.296875.054687 8.480469-3.3125 16.621093-9.335938 22.585937l-28.296875 28.292969 5.65625 5.65625c9.339844 9.375 9.355469 24.53125.039063 33.929687l-5.679688 5.601563 11.199219 11.390625 5.71875-5.601562c13.4375-13.464844 15.5625-34.519532 5.089844-50.398438l17.527344-17.535156c3.871093-3.847656 7.042968-8.339844 9.375-13.273438l13.273437 13.273438-11.3125 11.320312 11.3125 11.3125 11.3125-11.320312 11.320313 11.308594-11.320313 11.320312 11.3125 11.3125 11.320313-11.320312 11.3125 11.320312-11.320313 11.3125 11.308594 11.3125 11.304687-11.328125 11.304688 11.304687-60.824219 60.945313-34 11.277344-25.421875 25.503906 11.34375 11.265625 22.734375-22.816406 34-11.28125 63.496094-63.550782 73.550781 73.542969 214.960938-214.960937-73.519532-73.519532zm21.289063 103.199219-192.304688 192.335937-19.277344-19.277343 207.71875-176.945313zm-15.246094-15.246094-207.6875 176.949219-130.800782-130.789063c.046876-.863281.128907-1.714844.128907-2.585937.050781-12.742188-5-24.976563-14.027344-33.976563l-5.65625-5.648437-11.335937 11.320312-45.261719-45.269531 192.328125-192.335938 45.253906 45.253907-56.566406 56.578125 5.65625 5.65625c18.757812 18.707031 49.121094 18.707031 67.878906 0l22.632812-22.632813zm0 0"/><path d="m.0234375 304.160156 40.0000005-39.996094 11.3125 11.3125-40 40zm0 0"/><path d="m.0195312 248.164062 15.9999998-16 11.3125 11.316407-15.996093 15.996093zm0 0"/></svg>