<?xml version="1.0"?>
<svg xmlns="http://www.w3.org/2000/svg" xmlns:xlink="http://www.w3.org/1999/xlink" xmlns:svgjs="http://svgjs.com/svgjs" version="1.1" width="512" height="512" x="0" y="0" viewBox="0 0 480 480" style="enable-background:new 0 0 512 512" xml:space="preserve" class=""><g><path xmlns="http://www.w3.org/2000/svg" d="m440 392h-432v32c.027344 8.824219 7.175781 15.972656 16 16h432c8.824219-.027344 15.972656-7.175781 16-16v-32zm0 0" fill="#f4f4f4" data-original="#acabb1" style="" class=""/><path xmlns="http://www.w3.org/2000/svg" d="m408 88h-336c-17.671875 0-32 14.328125-32 32v272h400v-272c0-17.671875-14.328125-32-32-32zm0 0" fill="#f6f5f5" data-original="#78b9eb" style="" class=""/><path xmlns="http://www.w3.org/2000/svg" d="m472 96c0 48.601562-39.398438 88-88 88s-88-39.398438-88-88c0-2.71875.160156-5.359375.398438-8 4.464843-46.6875 44.757812-81.671875 91.605468-79.535156 46.851563 2.132812 83.796875 40.636718 83.996094 87.535156zm0 0" fill="#f4f4f4" data-original="#ffa733" style="" class=""/><path xmlns="http://www.w3.org/2000/svg" d="m397.839844 88c-4.027344-6.945312-12.582032-9.828125-19.992188-6.742188-7.410156 3.085938-11.386718 11.191407-9.292968 18.941407 2.089843 7.75 9.605468 12.75 17.5625 11.6875 7.957031-1.0625 13.898437-7.859375 13.882812-15.886719-.003906-2.808594-.75-5.570312-2.160156-8zm0 0" fill="#ff3a10" data-original="#ff5023" style="" class=""/><path xmlns="http://www.w3.org/2000/svg" d="m40 176h-32v88c0 4.417969 3.582031 8 8 8h144c4.417969 0 8-3.582031 8-8v-88zm0 0" fill="#f4f4f4" data-original="#ffa733" style="" class=""/><path xmlns="http://www.w3.org/2000/svg" d="m160 144h-144c-4.417969 0-8 3.582031-8 8v24h160v-24c0-4.417969-3.582031-8-8-8zm0 0" fill="#ff3a10" data-original="#ff5023" style="" class=""/><path xmlns="http://www.w3.org/2000/svg" d="m336 272c0 30.929688-25.070312 56-56 56s-56-25.070312-56-56 25.070312-56 56-56 56 25.070312 56 56zm0 0" fill="#f4f4f4" data-original="#ffd422" style="" class=""/><path xmlns="http://www.w3.org/2000/svg" d="m280 392v16c0 4.417969-3.582031 8-8 8h-64c-4.417969 0-8-3.582031-8-8v-16zm0 0" fill="#f4f4f4" data-original="#898890" style="" class=""/><path xmlns="http://www.w3.org/2000/svg" d="m384 192c53.019531 0 96-42.980469 96-96s-42.980469-96-96-96-96 42.980469-96 96c.058594 52.996094 43.003906 95.941406 96 96zm0-176c44.183594 0 80 35.816406 80 80s-35.816406 80-80 80-80-35.816406-80-80c.046875-44.164062 35.835938-79.953125 80-80zm0 0" fill="#000000" data-original="#000000" style="" class=""/><path xmlns="http://www.w3.org/2000/svg" d="m384 120c11.675781.023438 21.664062-8.378906 23.644531-19.886719 1.976563-11.507812-4.632812-22.761719-15.644531-26.640625v-33.472656h-16v33.472656c-6.777344 2.417969-12.109375 7.75-14.527344 14.527344h-25.472656v16h25.472656c3.378906 9.554688 12.394532 15.957031 22.527344 16zm0-32c4.417969 0 8 3.582031 8 8s-3.582031 8-8 8-8-3.582031-8-8 3.582031-8 8-8zm0 0" fill="#000000" data-original="#000000" style="" class=""/><path xmlns="http://www.w3.org/2000/svg" d="m16 280h144c8.835938 0 16-7.164062 16-16v-112c0-8.835938-7.164062-16-16-16h-32v-8h-16v8h-48v-8h-16v8h-32c-8.835938 0-16 7.164062-16 16v112c0 8.835938 7.164062 16 16 16zm0-16v-80h144v80zm32-112v8h16v-8h48v8h16v-8h32v16h-144v-16zm0 0" fill="#000000" data-original="#000000" style="" class=""/><path xmlns="http://www.w3.org/2000/svg" d="m32 200h16v16h-16zm0 0" fill="#000000" data-original="#000000" style="" class=""/><path xmlns="http://www.w3.org/2000/svg" d="m64 200h16v16h-16zm0 0" fill="#000000" data-original="#000000" style="" class=""/><path xmlns="http://www.w3.org/2000/svg" d="m96 200h16v16h-16zm0 0" fill="#000000" data-original="#000000" style="" class=""/><path xmlns="http://www.w3.org/2000/svg" d="m128 200h16v16h-16zm0 0" fill="#000000" data-original="#000000" style="" class=""/><path xmlns="http://www.w3.org/2000/svg" d="m32 232h16v16h-16zm0 0" fill="#000000" data-original="#000000" style="" class=""/><path xmlns="http://www.w3.org/2000/svg" d="m64 232h16v16h-16zm0 0" fill="#000000" data-original="#000000" style="" class=""/><path xmlns="http://www.w3.org/2000/svg" d="m96 232h16v16h-16zm0 0" fill="#000000" data-original="#000000" style="" class=""/><path xmlns="http://www.w3.org/2000/svg" d="m128 232h16v16h-16zm0 0" fill="#000000" data-original="#000000" style="" class=""/><path xmlns="http://www.w3.org/2000/svg" d="m472 384h-24v-192h-16v192h-384v-88h-16v88h-24c-4.417969 0-8 3.582031-8 8v32c0 13.253906 10.746094 24 24 24h432c13.253906 0 24-10.746094 24-24v-32c0-4.417969-3.582031-8-8-8zm-264 16h64v8h-64zm256 24c0 4.417969-3.582031 8-8 8h-432c-4.417969 0-8-3.582031-8-8v-24h176v8c0 8.835938 7.164062 16 16 16h64c8.835938 0 16-7.164062 16-16v-8h176zm0 0" fill="#000000" data-original="#000000" style="" class=""/><path xmlns="http://www.w3.org/2000/svg" d="m72 96h200v-16h-200c-22.082031.027344-39.972656 17.917969-40 40h16c0-13.253906 10.746094-24 24-24zm0 0" fill="#000000" data-original="#000000" style="" class=""/><path xmlns="http://www.w3.org/2000/svg" d="m80 352h320v16h-320zm0 0" fill="#000000" data-original="#000000" style="" class=""/><path xmlns="http://www.w3.org/2000/svg" d="m216 272c0 35.347656 28.652344 64 64 64s64-28.652344 64-64-28.652344-64-64-64c-35.328125.039062-63.960938 28.671875-64 64zm64-48c26.507812 0 48 21.492188 48 48s-21.492188 48-48 48-48-21.492188-48-48c.027344-26.5 21.5-47.972656 48-48zm0 0" fill="#000000" data-original="#000000" style="" class=""/><path xmlns="http://www.w3.org/2000/svg" d="m272 296c2.121094 0 4.15625-.84375 5.65625-2.34375l32-32-11.3125-11.3125-26.34375 26.34375-10.34375-10.34375-11.3125 11.3125 16 16c1.5 1.5 3.535156 2.34375 5.65625 2.34375zm0 0" fill="#000000" data-original="#000000" style="" class=""/><path xmlns="http://www.w3.org/2000/svg" d="m88 296v32c0 4.417969 3.582031 8 8 8h64v-16h-56v-24zm0 0" fill="#000000" data-original="#000000" style="" class=""/><path xmlns="http://www.w3.org/2000/svg" d="m176 320h16v16h-16zm0 0" fill="#000000" data-original="#000000" style="" class=""/><path xmlns="http://www.w3.org/2000/svg" d="m208 320h16v16h-16zm0 0" fill="#000000" data-original="#000000" style="" class=""/><path xmlns="http://www.w3.org/2000/svg" d="m392 272v-64h-16v56h-16v16h24c4.417969 0 8-3.582031 8-8zm0 0" fill="#000000" data-original="#000000" style="" class=""/><path xmlns="http://www.w3.org/2000/svg" d="m208 160h16v16h-16zm0 0" fill="#000000" data-original="#000000" style="" class=""/><path xmlns="http://www.w3.org/2000/svg" d="m240 160h16v16h-16zm0 0" fill="#000000" data-original="#000000" style="" class=""/><path xmlns="http://www.w3.org/2000/svg" d="m272 160h16v16h-16zm0 0" fill="#000000" data-original="#000000" style="" class=""/></g></svg>
